<?xml version="1.0" encoding="utf-8"?>
<!-- Generator: Adobe Illustrator 18.0.0, SVG Export Plug-In . SVG Version: 6.00 Build 0)  -->
<!DOCTYPE svg PUBLIC "-//W3C//DTD SVG 1.1//EN" "http://www.w3.org/Graphics/SVG/1.1/DTD/svg11.dtd">
<svg version="1.1" id="Layer_1" xmlns="http://www.w3.org/2000/svg" xmlns:xlink="http://www.w3.org/1999/xlink" x="0px" y="0px"
	 viewBox="0 0 503.7 1022.5" enable-background="new 0 0 503.7 1022.5" xml:space="preserve">
<g transform="translate(22.5000185, 639.0359585) ">
	<polygon fill="none" stroke="#FF0000" stroke-width="2.834646e-03" points="4,-119.3 28.8,-119.3 28.8,-127.8 62.1,-127.8 
		62.1,-119.3 84.8,-119.3 84.8,-127.8 118.1,-127.8 118.1,-119.3 142.9,-119.3 142.9,-94.5 151.4,-94.5 151.4,-61.2 142.9,-61.2 
		142.9,-38.5 151.4,-38.5 151.4,-5.2 142.9,-5.2 142.9,19.6 118.1,19.6 118.1,28.1 84.8,28.1 84.8,19.6 62.1,19.6 62.1,28.1 
		28.8,28.1 28.8,19.6 4,19.6 4,-5.2 -4.5,-5.2 -4.5,-38.5 4,-38.5 4,-61.2 -4.5,-61.2 -4.5,-94.5 4,-94.5 	"/>
</g>
<g transform="translate(217.3820685, 639.0359585) ">
	<polygon fill="none" stroke="#FF0000" stroke-width="2.834646e-03" points="-35,-119.3 -10.2,-119.3 -10.2,-127.8 23.1,-127.8 
		23.1,-119.3 45.8,-119.3 45.8,-127.8 79.1,-127.8 79.1,-119.3 103.9,-119.3 103.9,-94.5 112.4,-94.5 112.4,-61.2 103.9,-61.2 
		103.9,-38.5 112.4,-38.5 112.4,-5.2 103.9,-5.2 103.9,19.6 79.1,19.6 79.1,28.1 45.8,28.1 45.8,19.6 23.1,19.6 23.1,28.1 
		-10.2,28.1 -10.2,19.6 -35,19.6 -35,-5.2 -43.5,-5.2 -43.5,-38.5 -35,-38.5 -35,-61.2 -43.5,-61.2 -43.5,-94.5 -35,-94.5 	"/>
</g>
<rect x="62.3" y="572.2" fill="none" stroke="#FF0000" stroke-width="2.834646e-03" width="67.3" height="34"/>
<rect x="64.1" y="64.9" fill="none" stroke="#FF0000" stroke-width="2.834646e-03" width="63.8" height="33.7"/>
<rect x="46.8" y="64.9" fill="none" stroke="#FF0000" stroke-width="2.834646e-03" width="8.5" height="33.7"/>
<rect x="392.2" y="448.9" fill="none" stroke="#FF0000" stroke-width="2.834646e-03" width="31.2" height="22.7"/>
<circle fill="none" stroke="#FF0000" stroke-width="2.834646e-03" cx="407.8" cy="400.9" r="17"/>
<rect x="18" y="667.1" fill="none" stroke="#FF0000" stroke-width="2.834646e-03" width="155.9" height="155.9"/>
<rect x="38.2" y="726.9" fill="none" stroke="#FF0000" stroke-width="2.834646e-03" width="14.2" height="8.5"/>
<rect x="38.2" y="754.7" fill="none" stroke="#FF0000" stroke-width="2.834646e-03" width="14.2" height="8.5"/>
<rect x="25.2" y="829.7" fill="none" stroke="#FF0000" stroke-width="2.834646e-03" width="14.2" height="8.5"/>
<rect x="25.2" y="857.5" fill="none" stroke="#FF0000" stroke-width="2.834646e-03" width="14.2" height="8.5"/>
<rect x="18" y="823" fill="none" stroke="#FF0000" stroke-width="2.834646e-03" width="27.7" height="48"/>
<rect x="117.6" y="754.7" fill="none" stroke="#FF0000" stroke-width="2.834646e-03" width="14.2" height="8.5"/>
<rect x="117.6" y="726.9" fill="none" stroke="#FF0000" stroke-width="2.834646e-03" width="14.2" height="8.5"/>
<rect x="173.9" y="667.1" fill="none" stroke="#FF0000" stroke-width="2.834646e-03" width="155.9" height="155.9"/>
<rect x="194.1" y="726.9" fill="none" stroke="#FF0000" stroke-width="2.834646e-03" width="14.2" height="8.5"/>
<rect x="194.1" y="754.7" fill="none" stroke="#FF0000" stroke-width="2.834646e-03" width="14.2" height="8.5"/>
<rect x="273.5" y="754.7" fill="none" stroke="#FF0000" stroke-width="2.834646e-03" width="14.2" height="8.5"/>
<rect x="273.5" y="726.9" fill="none" stroke="#FF0000" stroke-width="2.834646e-03" width="14.2" height="8.5"/>
<rect x="52.9" y="829.7" fill="none" stroke="#FF0000" stroke-width="2.834646e-03" width="14.2" height="8.5"/>
<rect x="52.9" y="857.5" fill="none" stroke="#FF0000" stroke-width="2.834646e-03" width="14.2" height="8.5"/>
<rect x="45.7" y="823" fill="none" stroke="#FF0000" stroke-width="2.834646e-03" width="27.7" height="48"/>
<path fill="none" stroke="#FF0000" stroke-width="2.834646e-03" d="M173.9,18h-33.3v0c-0.3,0.1-0.5,2-0.5,4.2c0,2.3,0.2,4.1,0.5,4.2
	v0h-33.3v0c0.3-0.2,0.5-2,0.5-4.2s-0.2-4-0.5-4.2v0H84.6v0c-0.3,0-0.5,1.9-0.5,4.2c0,2.3,0.2,4.2,0.5,4.2v0H51.3v0
	c0.3-0.2,0.4-2,0.4-4.2c0-2.2-0.2-4-0.4-4.2v0H18v38.3c0,0.3,1.9,0.5,4.3,0.5c2.3,0,4.3-0.2,4.3-0.5v38.3v0h0c0,0,0,0,0,0
	c0-0.3-1.9-0.5-4.3-0.5c-2.3,0-4.3,0.2-4.3,0.5c0,0,0,0,0,0h0v22.7h0c0,0.3,1.9,0.5,4.2,0.5c2.3,0,4.2-0.2,4.2-0.5h0v22.7h0
	c-0.2-0.3-2-0.5-4.2-0.5c-2.2,0-4,0.2-4.2,0.5h0v22.7h0c0,0,0,0,0,0c0,0.3,1.9,0.5,4.3,0.5c2.3,0,4.3-0.2,4.3-0.5c0,0,0,0,0,0h0v0
	v22.7v0h0c0,0,0,0,0,0c0-0.3-1.9-0.5-4.3-0.5c-2.3,0-4.3,0.2-4.3,0.5c0,0,0,0,0,0h0v22.7h0c0.1,0.3,1.9,0.5,4.2,0.5
	c2.3,0,4.2-0.2,4.2-0.5h0v22.7h0c-0.1-0.3-2-0.5-4.2-0.5c-2.3,0-4.1,0.2-4.2,0.5h0v22.7h0c0,0,0,0,0,0c0,0.3,1.9,0.5,4.3,0.5
	c2.3,0,4.3-0.2,4.3-0.5c0,0,0,0,0,0h0v0v22.7v0h0c0,0,0,0,0,0c0-0.3-1.9-0.5-4.3-0.5c-2.3,0-4.3,0.2-4.3,0.5c0,0,0,0,0,0h0v22.7h0
	c0,0,0,0,0,0c0,0.3,1.9,0.5,4.3,0.5c2.3,0,4.3-0.2,4.3-0.5c0,0,0,0,0,0h0v0v22.7h0c-0.1-0.3-1.9-0.5-4.2-0.5c-2.3,0-4.2,0.2-4.2,0.5
	h0V344h0c0,0,0,0,0,0c0,0.3,1.9,0.5,4.3,0.5c2.3,0,4.3-0.2,4.3-0.5c0,0,0,0,0,0h0v0v22.7h0c-0.2-0.3-2-0.5-4.2-0.5
	c-2.2,0-4.1,0.2-4.2,0.5h0v22.7h0c0.1,0.3,1.9,0.5,4.2,0.5c2.3,0,4.2-0.2,4.2-0.5h0V412h0c-0.1-0.3-1.9-0.5-4.2-0.5
	c-2.3,0-4.2,0.2-4.2,0.5h0v22.7h0c0,0,0,0,0,0c0,0.3,1.9,0.5,4.3,0.5c2.3,0,4.3-0.2,4.3-0.5c0,0,0,0,0,0h0v0v38.2v0h0c0,0,0,0,0,0
	c0-0.3-1.9-0.5-4.3-0.5c-2.3,0-4.3,0.2-4.3,0.5c0,0,0,0,0,0h0v38.3h33.3v0c0.3-0.2,0.5-2,0.5-4.2s-0.2-4-0.5-4.2v0h33.3v0
	c-0.3,0.1-0.5,2-0.5,4.2c0,2.3,0.2,4.1,0.5,4.2v0h22.7v0c0.3-0.1,0.5-2,0.5-4.2c0-2.3-0.2-4.1-0.5-4.2v0h33.3v0
	c-0.3,0.2-0.5,2-0.5,4.2c0,2.2,0.2,4,0.5,4.2v0h33.3V473h0c0,0,0,0,0,0c0-0.3-1.9-0.5-4.3-0.5c-2.3,0-4.3,0.2-4.3,0.5c0,0,0,0,0,0h0
	v0v-38.2v0h0c0,0,0,0,0,0c0,0.3,1.9,0.5,4.3,0.5c2.3,0,4.3-0.2,4.3-0.5c0,0,0,0,0,0h0V412h0c-0.1-0.3-1.9-0.5-4.2-0.5
	c-2.3,0-4.1,0.2-4.2,0.5h0v-22.7h0c0,0.3,1.9,0.5,4.2,0.5c2.3,0,4.2-0.2,4.2-0.5h0v-22.7h0c-0.2-0.3-2-0.5-4.2-0.5
	c-2.2,0-4,0.2-4.2,0.5h0V344v0h0c0,0,0,0,0,0c0,0.3,1.9,0.5,4.3,0.5c2.3,0,4.3-0.2,4.3-0.5c0,0,0,0,0,0h0v-22.7h0
	c-0.1-0.3-1.9-0.5-4.2-0.5c-2.3,0-4.1,0.2-4.2,0.5h0v-22.6v0h0c0,0,0,0,0,0c0,0.3,1.9,0.5,4.3,0.5c2.3,0,4.3-0.2,4.3-0.5
	c0,0,0,0,0,0h0V276h0c0-0.3-1.9-0.5-4.3-0.5c-2.3,0-4.2,0.2-4.3,0.5h0v-22.7v0h0c0,0,0,0,0,0c0,0.3,1.9,0.5,4.3,0.5
	c2.3,0,4.3-0.2,4.3-0.5c0,0,0,0,0,0h0v-22.7h0c-0.2-0.3-2-0.5-4.2-0.5c-2.2,0-4.1,0.2-4.2,0.5h0v-22.7h0c0,0.3,1.9,0.5,4.2,0.5
	c2.3,0,4.2-0.2,4.2-0.5h0v-22.7h0c0-0.3-1.9-0.5-4.3-0.5c-2.3,0-4.2,0.2-4.3,0.5h0v-22.7v0h0c0,0,0,0,0,0c0,0.3,1.9,0.5,4.3,0.5
	c2.3,0,4.3-0.2,4.3-0.5c0,0,0,0,0,0h0v-22.7h0c-0.2-0.3-2-0.5-4.2-0.5c-2.2,0-4,0.2-4.2,0.5h0v-22.7v0h0c0,0,0,0,0,0
	c0,0.3,1.9,0.5,4.3,0.5c2.3,0,4.3-0.2,4.3-0.5c0,0,0,0,0,0h0V94.5h0c0-0.3-1.9-0.5-4.3-0.5c-2.3,0-4.2,0.2-4.3,0.5h0V56.3v0h0
	c0,0,0,0,0,0c0,0.3,1.9,0.5,4.3,0.5c2.3,0,4.3-0.2,4.3-0.5c0,0,0,0,0,0h0V18z"/>
<path fill="none" stroke="#FF0000" stroke-width="2.834646e-03" d="M329.8,18h-33.3v0c-0.3,0.1-0.5,2-0.5,4.2c0,2.3,0.2,4.1,0.5,4.2
	v0h-33.3v0c0.3-0.2,0.5-2,0.5-4.2s-0.2-4-0.5-4.2v0h-22.7v0c-0.3,0-0.5,1.9-0.5,4.2c0,2.3,0.2,4.2,0.5,4.2v0h-33.3v0
	c0.3-0.2,0.4-2,0.4-4.2c0-2.2-0.2-4-0.4-4.2v0h-33.3v38.3c0,0.3,1.9,0.5,4.3,0.5c2.3,0,4.3-0.2,4.3-0.5v38.3v0h0c0,0,0,0,0,0
	c0-0.3-1.9-0.5-4.3-0.5c-2.3,0-4.3,0.2-4.3,0.5c0,0,0,0,0,0h0v22.7h0c0,0.3,1.9,0.5,4.2,0.5c2.3,0,4.2-0.2,4.2-0.5h0v22.7h0
	c-0.2-0.3-2-0.5-4.2-0.5c-2.2,0-4,0.2-4.2,0.5h0v22.7h0c0,0,0,0,0,0c0,0.3,1.9,0.5,4.3,0.5c2.3,0,4.3-0.2,4.3-0.5c0,0,0,0,0,0h0v0
	v22.7v0h0c0,0,0,0,0,0c0-0.3-1.9-0.5-4.3-0.5c-2.3,0-4.3,0.2-4.3,0.5c0,0,0,0,0,0h0v22.7h0c0.1,0.3,1.9,0.5,4.2,0.5
	c2.3,0,4.2-0.2,4.2-0.5h0v22.7h0c-0.1-0.3-2-0.5-4.2-0.5c-2.3,0-4.1,0.2-4.2,0.5h0v22.7h0c0,0,0,0,0,0c0,0.3,1.9,0.5,4.3,0.5
	c2.3,0,4.3-0.2,4.3-0.5c0,0,0,0,0,0h0v0v22.7v0h0c0,0,0,0,0,0c0-0.3-1.9-0.5-4.3-0.5c-2.3,0-4.3,0.2-4.3,0.5c0,0,0,0,0,0h0v22.7h0
	c0,0,0,0,0,0c0,0.3,1.9,0.5,4.3,0.5c2.3,0,4.3-0.2,4.3-0.5c0,0,0,0,0,0h0v0v22.7h0c-0.1-0.3-1.9-0.5-4.2-0.5c-2.3,0-4.2,0.2-4.2,0.5
	h0V344h0c0,0,0,0,0,0c0,0.3,1.9,0.5,4.3,0.5c2.3,0,4.3-0.2,4.3-0.5c0,0,0,0,0,0h0v0v22.7h0c-0.2-0.3-2-0.5-4.2-0.5
	c-2.2,0-4.1,0.2-4.2,0.5h0v22.7h0c0.1,0.3,1.9,0.5,4.2,0.5c2.3,0,4.2-0.2,4.2-0.5h0V412h0c-0.1-0.3-1.9-0.5-4.2-0.5
	c-2.3,0-4.2,0.2-4.2,0.5h0v22.7h0c0,0,0,0,0,0c0,0.3,1.9,0.5,4.3,0.5c2.3,0,4.3-0.2,4.3-0.5c0,0,0,0,0,0h0v0v38.2v0h0c0,0,0,0,0,0
	c0-0.3-1.9-0.5-4.3-0.5c-2.3,0-4.3,0.2-4.3,0.5c0,0,0,0,0,0h0v38.3h33.3v0c0.3-0.2,0.5-2,0.5-4.2s-0.2-4-0.5-4.2v0h33.3v0
	c-0.3,0.1-0.5,2-0.5,4.2c0,2.3,0.2,4.1,0.5,4.2v0h22.7v0c0.3-0.1,0.5-2,0.5-4.2c0-2.3-0.2-4.1-0.5-4.2v0h33.3v0
	c-0.3,0.2-0.5,2-0.5,4.2c0,2.2,0.2,4,0.5,4.2v0h33.3V473h0c0,0,0,0,0,0c0-0.3-1.9-0.5-4.3-0.5c-2.3,0-4.3,0.2-4.3,0.5c0,0,0,0,0,0h0
	v0v-38.2v0h0c0,0,0,0,0,0c0,0.3,1.9,0.5,4.3,0.5c2.3,0,4.3-0.2,4.3-0.5c0,0,0,0,0,0h0V412h0c-0.1-0.3-1.9-0.5-4.2-0.5
	c-2.3,0-4.1,0.2-4.2,0.5h0v-22.7h0c0,0.3,1.9,0.5,4.2,0.5c2.3,0,4.2-0.2,4.2-0.5h0v-22.7h0c-0.2-0.3-2-0.5-4.2-0.5
	c-2.2,0-4,0.2-4.2,0.5h0V344v0h0c0,0,0,0,0,0c0,0.3,1.9,0.5,4.3,0.5c2.3,0,4.3-0.2,4.3-0.5c0,0,0,0,0,0h0v-22.7h0
	c-0.1-0.3-1.9-0.5-4.2-0.5c-2.3,0-4.1,0.2-4.2,0.5h0v-22.6v0h0c0,0,0,0,0,0c0,0.3,1.9,0.5,4.3,0.5c2.3,0,4.3-0.2,4.3-0.5
	c0,0,0,0,0,0h0V276h0c0-0.3-1.9-0.5-4.3-0.5c-2.3,0-4.2,0.2-4.3,0.5h0v-22.7v0h0c0,0,0,0,0,0c0,0.3,1.9,0.5,4.3,0.5
	c2.3,0,4.3-0.2,4.3-0.5c0,0,0,0,0,0h0v-22.7h0c-0.2-0.3-2-0.5-4.2-0.5c-2.2,0-4.1,0.2-4.2,0.5h0v-22.7h0c0,0.3,1.9,0.5,4.2,0.5
	c2.3,0,4.2-0.2,4.2-0.5h0v-22.7h0c0-0.3-1.9-0.5-4.3-0.5c-2.3,0-4.2,0.2-4.3,0.5h0v-22.7v0h0c0,0,0,0,0,0c0,0.3,1.9,0.5,4.3,0.5
	c2.3,0,4.3-0.2,4.3-0.5c0,0,0,0,0,0h0v-22.7h0c-0.2-0.3-2-0.5-4.2-0.5c-2.2,0-4,0.2-4.2,0.5h0v-22.7v0h0c0,0,0,0,0,0
	c0,0.3,1.9,0.5,4.3,0.5c2.3,0,4.3-0.2,4.3-0.5c0,0,0,0,0,0h0V94.5h0c0-0.3-1.9-0.5-4.3-0.5c-2.3,0-4.2,0.2-4.3,0.5h0V56.3v0h0
	c0,0,0,0,0,0c0,0.3,1.9,0.5,4.3,0.5c2.3,0,4.3-0.2,4.3-0.5c0,0,0,0,0,0h0V18z"/>
<path fill="none" stroke="#FF0000" stroke-width="2.834646e-03" d="M485.7,94.5V56.3h-8.5V18h-24.8v0c-0.3,0.2-0.5,2-0.5,4.2
	c0,2.2,0.2,4,0.5,4.2v0h-33.3v0c0.3-0.1,0.5-2,0.5-4.2c0-2.3-0.2-4.1-0.5-4.2v0h-22.7v0c-0.3,0.1-0.5,2-0.5,4.2
	c0,2.3,0.2,4.1,0.5,4.2v0h-33.3v0c0.3-0.2,0.5-2,0.5-4.2s-0.2-4-0.5-4.2v0h-24.8v38.3h-8.5v38.3h8.5v22.7h-8.5v22.7h8.5v22.7h-8.5
	v22.7h8.5v22.7h-8.5v22.7h8.5v22.7h-8.5V276h8.5v22.7h-8.5v22.7h8.5V344h-8.5v22.7h8.5v22.7h-8.5V412h8.5v22.7h-8.5V473h8.5v38.3
	h24.8v0c0.3-0.2,0.5-2,0.5-4.2s-0.2-4-0.5-4.2v0h33.3v0c-0.3,0.1-0.5,2-0.5,4.2c0,2.3,0.2,4.1,0.5,4.2v0h22.7v0
	c0.3-0.1,0.5-2,0.5-4.2c0-2.3-0.2-4.1-0.5-4.2v0h33.3v0c-0.3,0.2-0.5,2-0.5,4.2c0,2.2,0.2,4,0.5,4.2v0h24.8V473h8.5v-38.3h-8.5V412
	h8.5v-22.7h-8.5v-22.7h8.5V344h-8.5v-22.7h8.5v-22.7h-8.5V276h8.5v-22.7h-8.5v-22.7h8.5v-22.7h-8.5v-22.7h8.5v-22.7h-8.5v-22.7h8.5
	v-22.7h-8.5V94.5H485.7z"/>
<path fill="none" stroke="#FF0000" stroke-width="2.834646e-03" d="M485.7,588.9v-38.3h-8.5v-38.3h-24.8v0c-0.3,0.2-0.5,2-0.5,4.2
	c0,2.2,0.2,4,0.5,4.2v0h-33.3v0c0.3-0.1,0.5-2,0.5-4.2c0-2.3-0.2-4.1-0.5-4.2v0h-22.7v0c-0.3,0.1-0.5,2-0.5,4.2
	c0,2.3,0.2,4.1,0.5,4.2v0h-33.3v0c0.3-0.2,0.5-2,0.5-4.2s-0.2-4-0.5-4.2v0h-24.8v38.3h-8.5v38.3h8.5v22.7h-8.5v22.7h8.5v22.7h-8.5
	v22.7h8.5v22.7h-8.5V725h8.5v22.7h-8.5v22.7h8.5V793h-8.5v22.7h8.5v22.7h-8.5V861h8.5v22.7h-8.5v22.7h8.5v22.7h-8.5v38.3h8.5v38.3
	h24.8v0c0.3-0.2,0.5-2,0.5-4.2s-0.2-4-0.5-4.2v0h33.3v0c-0.3,0.1-0.5,2-0.5,4.2c0,2.3,0.2,4.1,0.5,4.2v0h22.7v0
	c0.3-0.1,0.5-2,0.5-4.2c0-2.3-0.2-4.1-0.5-4.2v0h33.3v0c-0.3,0.2-0.5,2-0.5,4.2c0,2.2,0.2,4,0.5,4.2v0h24.8v-38.3h8.5v-38.3h-8.5
	v-22.7h8.5v-22.7h-8.5V861h8.5v-22.7h-8.5v-22.7h8.5V793h-8.5v-22.7h8.5v-22.7h-8.5V725h8.5v-22.7h-8.5v-22.7h8.5v-22.7h-8.5v-22.7
	h8.5v-22.7h-8.5v-22.7H485.7z"/>
<path fill="none" stroke="#FF0000" stroke-width="2.834646e-03" d="M104.5,831.5H96c0.3-0.1,0.5-1.9,0.5-4.2c0-2.3-0.2-4.2-0.5-4.2
	v0H81.8v0c0,0,0,0,0,0c-0.3,0-0.5,1.9-0.5,4.3c0,2.3,0.2,4.2,0.5,4.2h-8.5v5.7h8.4c-0.2,0.7-0.4,4.2-0.4,8.4c0,4.7,0.2,8.6,0.5,8.6
	c0,0,0,0,0,0v0H96v0c0.3-0.1,0.5-3.9,0.5-8.6c0-4.2-0.2-7.8-0.4-8.4h8.4V831.5z"/>
<path fill="none" stroke="#FF0000" stroke-width="2.834646e-03" d="M135.7,831.5h-8.5c0.3-0.1,0.5-1.9,0.5-4.2
	c0-2.3-0.2-4.2-0.5-4.2v0H113v0c0,0,0,0,0,0c-0.3,0-0.5,1.9-0.5,4.3c0,2.3,0.2,4.2,0.5,4.2h-8.5v5.7h8.4c-0.2,0.7-0.4,4.2-0.4,8.4
	c0,4.7,0.2,8.6,0.5,8.6c0,0,0,0,0,0v0h14.2v0c0.3-0.1,0.5-3.9,0.5-8.6c0-4.2-0.2-7.8-0.4-8.4h8.4V831.5z"/>
<path fill="none" stroke="#FF0000" stroke-width="2.834646e-03" d="M96,582.1h-8.5c0.3-0.1,0.5-1.9,0.5-4.2c0-2.3-0.2-4.2-0.5-4.2v0
	H73.3v0c0,0,0,0,0,0c-0.3,0-0.5,1.9-0.5,4.3c0,2.3,0.2,4.2,0.5,4.2h-8.5v5.7h8.4c-0.2,0.7-0.4,4.2-0.4,8.4c0,4.7,0.2,8.6,0.5,8.6
	c0,0,0,0,0,0v0h14.2v0c0.3-0.1,0.5-3.9,0.5-8.6c0-4.2-0.2-7.8-0.4-8.4H96V582.1z"/>
<path fill="none" stroke="#FF0000" stroke-width="2.834646e-03" d="M127.1,582.1h-8.5c0.3-0.1,0.5-1.9,0.5-4.2
	c0-2.3-0.2-4.2-0.5-4.2v0h-14.2v0c0,0,0,0,0,0c-0.3,0-0.5,1.9-0.5,4.3c0,2.3,0.2,4.2,0.5,4.2H96v5.7h8.4c-0.2,0.7-0.4,4.2-0.4,8.4
	c0,4.7,0.2,8.6,0.5,8.6c0,0,0,0,0,0v0h14.2v0c0.3-0.1,0.5-3.9,0.5-8.6c0-4.2-0.2-7.8-0.4-8.4h8.4V582.1z"/>
<path fill="none" stroke="#FF0000" stroke-width="2.834646e-03" d="M242.9,80.9c-2.7,0-4.8-2.2-4.8-4.8s2.2-4.8,4.8-4.8
	c2.7,0,4.8,2.2,4.8,4.8S245.6,80.9,242.9,80.9z"/>
<g>
	<path fill="none" stroke="#FF0000" stroke-width="2.834646e-03" d="M263.1,78.3c-1.2,0-2.2-1-2.2-2.2s1-2.2,2.2-2.2s2.2,1,2.2,2.2
		S264.3,78.3,263.1,78.3z"/>
</g>
<g>
	<path fill="none" stroke="#FF0000" stroke-width="2.834646e-03" d="M246.9,92.7c-3.7,0-6.2-1.6-6.2-4.1c0-0.6,0.4-1,1-1s1,0.4,1,1
		c0,1.3,2.1,2.1,4.2,2.1c1.5,0,3-0.3,4.2-0.9c-1.3-1.2-2.2-2.7-2.2-4.5c0-0.6,0.4-1,1-1h5.2c0.6,0,1,0.4,1,1c0,1.7-0.6,3.2-1.6,4.4
		c2.8,1.2,6.3,1.3,7.9,0.4c0.7-0.4,1-0.9,1-1.5c0-0.6,0.4-1,1-1s1,0.4,1,1c0,1.4-0.7,2.5-2,3.3c-1,0.6-2.5,0.9-4.1,0.9
		c-2.2,0-4.6-0.6-6.4-1.6C251.2,92.1,249,92.7,246.9,92.7z"/>
</g>
<g>
	<path fill="none" stroke="#FF0000" stroke-width="2.834646e-03" d="M253.4,60.6c2.7,0.1,5.4,0.6,7.9,1.4c0.3,0.1,0.5,0.1,0.8-0.1
		l12.1-6.4l-3.6,11c-0.1,0.4,0,0.8,0.3,1c3.8,3.6,5.9,8.2,5.9,12.9c0,0.1,0,0.2,0,0.3h2c0-0.1,0-0.2,0-0.3c0-5.1-2.2-10-6.1-13.9
		l4.2-12.7c0.1-0.4,0-0.8-0.3-1.1s-0.8-0.3-1.1-0.1l-14,7.4c-2.6-0.8-5.3-1.3-8.1-1.4V60.6z"/>
	<path fill="none" stroke="#FF0000" stroke-width="2.834646e-03" d="M276.7,82.9c-1.4,9.5-11.2,17-23.2,17.6v2
		c13.2-0.6,23.9-9,25.3-19.6H276.7z"/>
	<path fill="none" stroke="#FF0000" stroke-width="2.834646e-03" d="M224.9,80.9h2c0-0.1,0-0.2,0-0.3c0-4.6,1.9-8.9,5.5-12.5
		c0.3-0.3,0.4-0.7,0.2-1l-3.8-11.4l12.4,6.5c0.2,0.1,0.5,0.2,0.8,0.1c3-1,6.2-1.6,9.4-1.6v-2c-3.3,0-6.6,0.6-9.7,1.6l-14.2-7.5
		c-0.4-0.2-0.8-0.1-1.1,0.1c-0.3,0.3-0.4,0.7-0.3,1.1l4.4,13.2c-3.7,3.8-5.7,8.6-5.7,13.5C224.9,80.6,224.9,80.7,224.9,80.9z"/>
	<path fill="none" stroke="#FF0000" stroke-width="2.834646e-03" d="M251.4,100.5c-12.6-0.2-22.9-7.8-24.4-17.6h-2
		c1.4,10.9,12.7,19.5,26.4,19.6V100.5z"/>
</g>
</svg>
